<svg xmlns="http://www.w3.org/2000/svg" width="40" height="40" viewBox="0 0 40 40">
  <g id="locked-icon" transform="translate(-1175 -509)">
    <circle id="Ellipse_7" data-name="Ellipse 7" cx="20" cy="20" r="20" transform="translate(1175 509)" fill="#f8dab7"/>
    <g id="user" transform="translate(1188.948 521.436)">
      <path id="Path_26" data-name="Path 26" d="M10.4,16.834H1.7a1.7,1.7,0,0,1-1.7-1.7V8.7A1.7,1.7,0,0,1,1.7,7h8.7a1.7,1.7,0,0,1,1.7,1.7v6.43A1.7,1.7,0,0,1,10.4,16.834Zm-8.7-8.7a.569.569,0,0,0-.567.567v6.43A.569.569,0,0,0,1.7,15.7h8.7a.569.569,0,0,0,.567-.567V8.7a.569.569,0,0,0-.567-.567Z" transform="translate(0 -1.705)" fill="#6c2500" stroke="#6c2500" stroke-width="0.5"/>
      <path id="Path_27" data-name="Path 27" d="M10,6.43a.568.568,0,0,1-.567-.567V3.782a2.648,2.648,0,1,0-5.3,0v2.08A.567.567,0,0,1,3,5.862V3.782a3.782,3.782,0,1,1,7.564,0v2.08A.568.568,0,0,1,10,6.43Z" transform="translate(-0.731)" fill="#6c2500" stroke="#6c2500" stroke-width="0.5"/>
    </g>
  </g>
</svg>
