<svg xmlns="http://www.w3.org/2000/svg" width="52" height="52" viewBox="0 0 52 52">
  <g id="locked-icon" transform="translate(-1477 -515)">
    <circle id="Ellipse_3" data-name="Ellipse 3" cx="26" cy="26" r="26" transform="translate(1477 515)" fill="#f8dab7"/>
    <g id="user" transform="translate(1495.133 531.167)">
      <path id="Path_26" data-name="Path 26" d="M13.521,19.784H2.213A2.216,2.216,0,0,1,0,17.571V9.213A2.216,2.216,0,0,1,2.213,7H13.521a2.216,2.216,0,0,1,2.213,2.213v8.359A2.216,2.216,0,0,1,13.521,19.784ZM2.213,8.475a.739.739,0,0,0-.738.738v8.359a.739.739,0,0,0,.738.738H13.521a.739.739,0,0,0,.738-.738V9.213a.739.739,0,0,0-.738-.738Z" transform="translate(0 -0.116)" fill="#6c2500" stroke="#6c2500" stroke-width="0.5"/>
      <path id="Path_27" data-name="Path 27" d="M12.1,8.359a.738.738,0,0,1-.738-.738v-2.7a3.442,3.442,0,0,0-6.884,0v2.7A.738.738,0,0,1,3,7.621v-2.7a4.917,4.917,0,0,1,9.834,0v2.7A.738.738,0,0,1,12.1,8.359Z" transform="translate(-0.05)" fill="#6c2500" stroke="#6c2500" stroke-width="0.5"/>
    </g>
  </g>
</svg>
