<svg xmlns="http://www.w3.org/2000/svg" width="52.138" height="14.032" viewBox="0 0 52.138 14.032">
  <path id="logo" d="M7.632.216a6.867,6.867,0,0,0,3.744-1.08l.684.612a1.3,1.3,0,0,0,.918.378,1.306,1.306,0,0,0,1.3-1.314,1.36,1.36,0,0,0-.5-1.044l-.54-.45A6.464,6.464,0,0,0,14.346-6.3v-.036a6.456,6.456,0,0,0-6.678-6.48A6.516,6.516,0,0,0,.954-6.3v.036A6.456,6.456,0,0,0,7.632.216ZM8.01-3.8,9.324-2.682a3.786,3.786,0,0,1-1.656.342A3.828,3.828,0,0,1,3.852-6.3v-.036a3.768,3.768,0,0,1,3.78-3.924A3.828,3.828,0,0,1,11.448-6.3v.036a4.415,4.415,0,0,1-.342,1.728L9.72-5.778A1.279,1.279,0,0,0,8.8-6.156a1.306,1.306,0,0,0-1.3,1.314A1.36,1.36,0,0,0,8.01-3.8ZM23.868.2c3.384,0,5.526-1.872,5.526-5.688v-5.832a1.375,1.375,0,0,0-1.386-1.386,1.375,1.375,0,0,0-1.386,1.386v5.94c0,2-1.026,3.024-2.718,3.024S21.186-3.42,21.186-5.472v-5.85A1.375,1.375,0,0,0,19.8-12.708a1.375,1.375,0,0,0-1.386,1.386V-5.4C18.414-1.692,20.484.2,23.868.2ZM34.146-1.278A1.375,1.375,0,0,0,35.532.108a1.375,1.375,0,0,0,1.386-1.386V-11.322a1.375,1.375,0,0,0-1.386-1.386,1.375,1.375,0,0,0-1.386,1.386ZM42.606,0h8.262a1.222,1.222,0,0,0,1.224-1.206A1.237,1.237,0,0,0,50.868-2.43H45.054l6.534-7.6a1.989,1.989,0,0,0,.5-1.3v-.054A1.237,1.237,0,0,0,50.868-12.6H42.822A1.237,1.237,0,0,0,41.6-11.376a1.222,1.222,0,0,0,1.224,1.206h5.6l-6.534,7.6a1.953,1.953,0,0,0-.5,1.3v.054A1.237,1.237,0,0,0,42.606,0Z" transform="translate(-0.454 13.316)" fill="#f2744e" stroke="#f2744e" stroke-width="1"/>
</svg>
